<mxfile host="65bd71144e">
    <diagram id="VzYN61NTNZYl_n4JDhGq" name="Page-1">
        <mxGraphModel dx="1616" dy="1550" grid="1" gridSize="30" guides="1" tooltips="1" connect="1" arrows="1" fold="1" page="1" pageScale="1" pageWidth="850" pageHeight="1100" math="0" shadow="0">
            <root>
                <mxCell id="0"/>
                <mxCell id="1" parent="0"/>
                <mxCell id="51" style="html=1;exitX=1;exitY=0.25;exitDx=0;exitDy=0;entryX=0;entryY=0.75;entryDx=0;entryDy=0;movable=1;resizable=1;rotatable=1;deletable=1;editable=1;connectable=1;" edge="1" parent="1" source="2" target="8">
                    <mxGeometry relative="1" as="geometry">
                        <mxPoint x="730" y="240" as="targetPoint"/>
                        <Array as="points">
                            <mxPoint x="770" y="240"/>
                        </Array>
                    </mxGeometry>
                </mxCell>
                <mxCell id="53" style="edgeStyle=none;html=1;exitX=1;exitY=0.5;exitDx=0;exitDy=0;entryX=0.25;entryY=1;entryDx=0;entryDy=0;" edge="1" parent="1" target="55">
                    <mxGeometry relative="1" as="geometry">
                        <mxPoint x="590" y="305" as="targetPoint"/>
                        <mxPoint x="410" y="300" as="sourcePoint"/>
                    </mxGeometry>
                </mxCell>
                <mxCell id="54" value="rs2" style="edgeLabel;html=1;align=center;verticalAlign=middle;resizable=0;points=[];" vertex="1" connectable="0" parent="53">
                    <mxGeometry x="0.2432" y="-4" relative="1" as="geometry">
                        <mxPoint x="-22" y="-2" as="offset"/>
                    </mxGeometry>
                </mxCell>
                <mxCell id="64" style="edgeStyle=orthogonalEdgeStyle;html=1;exitX=1;exitY=0.25;exitDx=0;exitDy=0;entryX=0;entryY=0.5;entryDx=0;entryDy=0;elbow=vertical;" edge="1" parent="1" source="2" target="9">
                    <mxGeometry relative="1" as="geometry">
                        <Array as="points">
                            <mxPoint x="740" y="240"/>
                            <mxPoint x="740" y="375"/>
                        </Array>
                    </mxGeometry>
                </mxCell>
                <mxCell id="72" value="rs1" style="edgeLabel;html=1;align=center;verticalAlign=middle;resizable=0;points=[];" vertex="1" connectable="0" parent="64">
                    <mxGeometry x="0.0114" y="-1" relative="1" as="geometry">
                        <mxPoint as="offset"/>
                    </mxGeometry>
                </mxCell>
                <mxCell id="97" style="edgeStyle=orthogonalEdgeStyle;html=1;exitX=1;exitY=0.5;exitDx=0;exitDy=0;elbow=vertical;entryX=0;entryY=0.75;entryDx=0;entryDy=0;" edge="1" parent="1" source="2" target="88">
                    <mxGeometry relative="1" as="geometry">
                        <mxPoint x="1246" y="420" as="targetPoint"/>
                        <Array as="points">
                            <mxPoint x="530" y="295"/>
                            <mxPoint x="530" y="510"/>
                            <mxPoint x="1170" y="510"/>
                            <mxPoint x="1170" y="410"/>
                            <mxPoint x="1249" y="410"/>
                            <mxPoint x="1249" y="412"/>
                        </Array>
                    </mxGeometry>
                </mxCell>
                <mxCell id="147" style="edgeStyle=orthogonalEdgeStyle;html=1;exitX=1;exitY=0.25;exitDx=0;exitDy=0;entryX=0.25;entryY=1;entryDx=0;entryDy=0;elbow=vertical;" edge="1" parent="1" source="2" target="141">
                    <mxGeometry relative="1" as="geometry">
                        <Array as="points">
                            <mxPoint x="460" y="240"/>
                            <mxPoint x="460" y="-690"/>
                        </Array>
                    </mxGeometry>
                </mxCell>
                <mxCell id="148" value="rs1" style="edgeLabel;html=1;align=center;verticalAlign=middle;resizable=0;points=[];" vertex="1" connectable="0" parent="147">
                    <mxGeometry x="0.8974" y="4" relative="1" as="geometry">
                        <mxPoint as="offset"/>
                    </mxGeometry>
                </mxCell>
                <mxCell id="2" value="&lt;div style=&quot;&quot;&gt;&lt;span style=&quot;background-color: initial;&quot;&gt;Regfile&lt;/span&gt;&lt;/div&gt;" style="whiteSpace=wrap;html=1;aspect=fixed;align=center;" vertex="1" parent="1">
                    <mxGeometry x="190" y="185" width="220" height="220" as="geometry"/>
                </mxCell>
                <mxCell id="42" style="edgeStyle=none;html=1;exitX=1;exitY=0.5;exitDx=0;exitDy=0;entryX=0.75;entryY=0;entryDx=0;entryDy=0;" edge="1" parent="1" source="3" target="8">
                    <mxGeometry relative="1" as="geometry">
                        <mxPoint x="940" y="-80" as="targetPoint"/>
                        <Array as="points">
                            <mxPoint x="948" y="-85"/>
                        </Array>
                    </mxGeometry>
                </mxCell>
                <mxCell id="75" value="Swap_branch_answer" style="edgeLabel;html=1;align=center;verticalAlign=middle;resizable=0;points=[];" vertex="1" connectable="0" parent="42">
                    <mxGeometry x="0.1704" y="-3" relative="1" as="geometry">
                        <mxPoint x="71" y="-3" as="offset"/>
                    </mxGeometry>
                </mxCell>
                <mxCell id="43" style="edgeStyle=none;html=1;exitX=1;exitY=0;exitDx=0;exitDy=0;entryX=0;entryY=0.5;entryDx=0;entryDy=0;" edge="1" parent="1" source="3" target="78">
                    <mxGeometry relative="1" as="geometry">
                        <mxPoint x="1110" y="-110" as="targetPoint"/>
                        <Array as="points">
                            <mxPoint x="1100" y="-110"/>
                        </Array>
                    </mxGeometry>
                </mxCell>
                <mxCell id="83" value="Muldiv_ALU_choose" style="edgeLabel;html=1;align=center;verticalAlign=middle;resizable=0;points=[];" vertex="1" connectable="0" parent="43">
                    <mxGeometry x="0.2096" relative="1" as="geometry">
                        <mxPoint x="122" y="221" as="offset"/>
                    </mxGeometry>
                </mxCell>
                <mxCell id="44" style="edgeStyle=none;html=1;exitX=1;exitY=1;exitDx=0;exitDy=0;entryX=0.406;entryY=0.01;entryDx=0;entryDy=0;entryPerimeter=0;" edge="1" parent="1" source="3" target="9">
                    <mxGeometry relative="1" as="geometry">
                        <mxPoint x="910" y="340" as="targetPoint"/>
                        <Array as="points">
                            <mxPoint x="910" y="-53"/>
                            <mxPoint x="910" y="310"/>
                        </Array>
                    </mxGeometry>
                </mxCell>
                <mxCell id="47" style="edgeStyle=none;html=1;exitX=1;exitY=1;exitDx=0;exitDy=0;entryX=0;entryY=0.5;entryDx=0;entryDy=0;" edge="1" parent="1" source="3" target="55">
                    <mxGeometry relative="1" as="geometry">
                        <mxPoint x="610" y="-10" as="targetPoint"/>
                        <Array as="points">
                            <mxPoint x="300" y="-10"/>
                            <mxPoint x="610" y="-10"/>
                        </Array>
                    </mxGeometry>
                </mxCell>
                <mxCell id="56" value="ALUSrc_select" style="edgeLabel;html=1;align=center;verticalAlign=middle;resizable=0;points=[];" vertex="1" connectable="0" parent="47">
                    <mxGeometry x="-0.0225" y="2" relative="1" as="geometry">
                        <mxPoint as="offset"/>
                    </mxGeometry>
                </mxCell>
                <mxCell id="57" style="edgeStyle=none;html=1;exitX=0.5;exitY=1;exitDx=0;exitDy=0;" edge="1" parent="1" source="3" target="182">
                    <mxGeometry relative="1" as="geometry">
                        <mxPoint x="260" y="60" as="targetPoint"/>
                    </mxGeometry>
                </mxCell>
                <mxCell id="58" value="Regwirte_select" style="edgeLabel;html=1;align=center;verticalAlign=middle;resizable=0;points=[];" vertex="1" connectable="0" parent="57">
                    <mxGeometry x="0.1267" y="-2" relative="1" as="geometry">
                        <mxPoint as="offset"/>
                    </mxGeometry>
                </mxCell>
                <mxCell id="68" style="edgeStyle=orthogonalEdgeStyle;html=1;exitX=1;exitY=1;exitDx=0;exitDy=0;entryX=0.131;entryY=-0.055;entryDx=0;entryDy=0;entryPerimeter=0;elbow=vertical;" edge="1" parent="1" source="3" target="8">
                    <mxGeometry relative="1" as="geometry"/>
                </mxCell>
                <mxCell id="69" value="ALU_opcode" style="edgeLabel;html=1;align=center;verticalAlign=middle;resizable=0;points=[];" vertex="1" connectable="0" parent="68">
                    <mxGeometry x="-0.2374" y="1" relative="1" as="geometry">
                        <mxPoint as="offset"/>
                    </mxGeometry>
                </mxCell>
                <mxCell id="89" style="edgeStyle=orthogonalEdgeStyle;html=1;exitX=0.5;exitY=0;exitDx=0;exitDy=0;elbow=vertical;entryX=0.25;entryY=0;entryDx=0;entryDy=0;" edge="1" parent="1" source="3" target="88">
                    <mxGeometry relative="1" as="geometry">
                        <mxPoint x="1090" y="-150" as="targetPoint"/>
                    </mxGeometry>
                </mxCell>
                <mxCell id="91" value="o_DMEM_cen" style="edgeLabel;html=1;align=center;verticalAlign=middle;resizable=0;points=[];" vertex="1" connectable="0" parent="89">
                    <mxGeometry x="0.6424" y="-4" relative="1" as="geometry">
                        <mxPoint as="offset"/>
                    </mxGeometry>
                </mxCell>
                <mxCell id="90" style="edgeStyle=orthogonalEdgeStyle;html=1;exitX=0.5;exitY=0;exitDx=0;exitDy=0;elbow=vertical;entryX=0.5;entryY=0;entryDx=0;entryDy=0;" edge="1" parent="1" source="3" target="88">
                    <mxGeometry relative="1" as="geometry">
                        <mxPoint x="1310.0000000000005" y="-149.99999999999977" as="targetPoint"/>
                    </mxGeometry>
                </mxCell>
                <mxCell id="92" value="o_DMEM_wen" style="edgeLabel;html=1;align=center;verticalAlign=middle;resizable=0;points=[];" vertex="1" connectable="0" parent="90">
                    <mxGeometry x="0.6916" relative="1" as="geometry">
                        <mxPoint as="offset"/>
                    </mxGeometry>
                </mxCell>
                <mxCell id="104" style="edgeStyle=orthogonalEdgeStyle;html=1;exitX=1;exitY=0;exitDx=0;exitDy=0;elbow=vertical;entryX=0;entryY=0.5;entryDx=0;entryDy=0;" edge="1" parent="1" source="3" target="99">
                    <mxGeometry relative="1" as="geometry">
                        <mxPoint x="1450.0000000000005" y="140.00000000000023" as="targetPoint"/>
                    </mxGeometry>
                </mxCell>
                <mxCell id="105" value="MemtoReg_select" style="edgeLabel;html=1;align=center;verticalAlign=middle;resizable=0;points=[];" vertex="1" connectable="0" parent="104">
                    <mxGeometry x="0.7945" y="-7" relative="1" as="geometry">
                        <mxPoint y="1" as="offset"/>
                    </mxGeometry>
                </mxCell>
                <mxCell id="109" style="edgeStyle=orthogonalEdgeStyle;html=1;exitX=0.5;exitY=0;exitDx=0;exitDy=0;elbow=vertical;entryX=1;entryY=0.25;entryDx=0;entryDy=0;" edge="1" parent="1" source="3" target="112">
                    <mxGeometry relative="1" as="geometry">
                        <mxPoint x="780" y="-520" as="targetPoint"/>
                        <Array as="points">
                            <mxPoint x="265" y="-560"/>
                            <mxPoint x="880" y="-560"/>
                            <mxPoint x="880" y="-506"/>
                            <mxPoint x="922" y="-506"/>
                        </Array>
                    </mxGeometry>
                </mxCell>
                <mxCell id="110" value="branch_select[1]" style="edgeLabel;html=1;align=center;verticalAlign=middle;resizable=0;points=[];" vertex="1" connectable="0" parent="109">
                    <mxGeometry x="0.1976" y="1" relative="1" as="geometry">
                        <mxPoint x="235" y="-169" as="offset"/>
                    </mxGeometry>
                </mxCell>
                <mxCell id="130" style="edgeStyle=orthogonalEdgeStyle;html=1;exitX=0.5;exitY=0;exitDx=0;exitDy=0;elbow=vertical;entryX=1;entryY=0.5;entryDx=0;entryDy=0;" edge="1" parent="1" source="3" target="131">
                    <mxGeometry relative="1" as="geometry">
                        <mxPoint x="752" y="-680" as="targetPoint"/>
                        <Array as="points">
                            <mxPoint x="265" y="-400"/>
                            <mxPoint x="740" y="-400"/>
                        </Array>
                    </mxGeometry>
                </mxCell>
                <mxCell id="134" style="edgeStyle=orthogonalEdgeStyle;html=1;exitX=0.5;exitY=0;exitDx=0;exitDy=0;entryX=1;entryY=0.25;entryDx=0;entryDy=0;elbow=vertical;" edge="1" parent="1" source="3" target="132">
                    <mxGeometry relative="1" as="geometry">
                        <Array as="points">
                            <mxPoint x="265" y="-400"/>
                            <mxPoint x="741" y="-400"/>
                        </Array>
                    </mxGeometry>
                </mxCell>
                <mxCell id="136" value="branch_select[0]" style="edgeLabel;html=1;align=center;verticalAlign=middle;resizable=0;points=[];" vertex="1" connectable="0" parent="134">
                    <mxGeometry x="0.3119" y="2" relative="1" as="geometry">
                        <mxPoint x="1" y="-190" as="offset"/>
                    </mxGeometry>
                </mxCell>
                <mxCell id="180" style="edgeStyle=orthogonalEdgeStyle;html=1;exitX=0;exitY=0;exitDx=0;exitDy=0;elbow=vertical;" edge="1" parent="1" source="3">
                    <mxGeometry relative="1" as="geometry">
                        <mxPoint x="130" y="-220" as="targetPoint"/>
                    </mxGeometry>
                </mxCell>
                <mxCell id="181" value="o_finish" style="edgeLabel;html=1;align=center;verticalAlign=middle;resizable=0;points=[];" vertex="1" connectable="0" parent="180">
                    <mxGeometry x="0.6926" y="3" relative="1" as="geometry">
                        <mxPoint as="offset"/>
                    </mxGeometry>
                </mxCell>
                <mxCell id="3" value="Opcontrol&amp;amp;&lt;br&gt;ALU_control" style="ellipse;whiteSpace=wrap;html=1;aspect=fixed;" vertex="1" parent="1">
                    <mxGeometry x="220" y="-130" width="90" height="90" as="geometry"/>
                </mxCell>
                <mxCell id="80" style="edgeStyle=orthogonalEdgeStyle;html=1;exitX=1;exitY=0.5;exitDx=0;exitDy=0;entryX=0.5;entryY=1;entryDx=0;entryDy=0;elbow=vertical;" edge="1" parent="1" source="8" target="78">
                    <mxGeometry relative="1" as="geometry"/>
                </mxCell>
                <mxCell id="81" value="single_cycle_result" style="edgeLabel;html=1;align=center;verticalAlign=middle;resizable=0;points=[];" vertex="1" connectable="0" parent="80">
                    <mxGeometry x="0.1217" y="2" relative="1" as="geometry">
                        <mxPoint as="offset"/>
                    </mxGeometry>
                </mxCell>
                <mxCell id="93" style="edgeStyle=orthogonalEdgeStyle;html=1;exitX=1;exitY=0;exitDx=0;exitDy=0;elbow=vertical;entryX=1;entryY=0.5;entryDx=0;entryDy=0;" edge="1" parent="1" source="8" target="156">
                    <mxGeometry relative="1" as="geometry">
                        <mxPoint x="710" y="-210" as="targetPoint"/>
                    </mxGeometry>
                </mxCell>
                <mxCell id="94" value="zero" style="edgeLabel;html=1;align=center;verticalAlign=middle;resizable=0;points=[];" vertex="1" connectable="0" parent="93">
                    <mxGeometry x="0.2046" relative="1" as="geometry">
                        <mxPoint x="278" y="165" as="offset"/>
                    </mxGeometry>
                </mxCell>
                <mxCell id="158" value="zero" style="edgeLabel;html=1;align=center;verticalAlign=middle;resizable=0;points=[];" vertex="1" connectable="0" parent="93">
                    <mxGeometry x="0.9747" y="-2" relative="1" as="geometry">
                        <mxPoint as="offset"/>
                    </mxGeometry>
                </mxCell>
                <mxCell id="8" value="Single_cycle" style="rounded=0;whiteSpace=wrap;html=1;" vertex="1" parent="1">
                    <mxGeometry x="860" y="179.8" width="117.5" height="80" as="geometry"/>
                </mxCell>
                <mxCell id="79" style="edgeStyle=orthogonalEdgeStyle;html=1;exitX=1;exitY=0.25;exitDx=0;exitDy=0;entryX=0.75;entryY=1;entryDx=0;entryDy=0;elbow=vertical;" edge="1" parent="1" source="9" target="78">
                    <mxGeometry relative="1" as="geometry"/>
                </mxCell>
                <mxCell id="82" value="Mul_div_result" style="edgeLabel;html=1;align=center;verticalAlign=middle;resizable=0;points=[];" vertex="1" connectable="0" parent="79">
                    <mxGeometry x="-0.1189" y="-1" relative="1" as="geometry">
                        <mxPoint as="offset"/>
                    </mxGeometry>
                </mxCell>
                <mxCell id="120" style="edgeStyle=orthogonalEdgeStyle;html=1;exitX=1;exitY=0.75;exitDx=0;exitDy=0;elbow=vertical;entryX=0.175;entryY=0.75;entryDx=0;entryDy=0;entryPerimeter=0;" edge="1" parent="1" source="9" target="121">
                    <mxGeometry relative="1" as="geometry">
                        <mxPoint x="490" y="-250" as="targetPoint"/>
                        <Array as="points">
                            <mxPoint x="990" y="390"/>
                            <mxPoint x="990" y="62"/>
                            <mxPoint x="480" y="62"/>
                            <mxPoint x="480" y="-240"/>
                        </Array>
                    </mxGeometry>
                </mxCell>
                <mxCell id="124" value="pc_wait" style="edgeLabel;html=1;align=center;verticalAlign=middle;resizable=0;points=[];" vertex="1" connectable="0" parent="120">
                    <mxGeometry x="0.8436" y="-2" relative="1" as="geometry">
                        <mxPoint as="offset"/>
                    </mxGeometry>
                </mxCell>
                <mxCell id="9" value="Multi-cycle" style="rounded=0;whiteSpace=wrap;html=1;" vertex="1" parent="1">
                    <mxGeometry x="860" y="345" width="120" height="60" as="geometry"/>
                </mxCell>
                <mxCell id="49" style="edgeStyle=none;html=1;entryX=0.5;entryY=1;entryDx=0;entryDy=0;" edge="1" parent="1" source="10" target="55">
                    <mxGeometry relative="1" as="geometry">
                        <mxPoint x="520" y="535" as="targetPoint"/>
                        <Array as="points">
                            <mxPoint x="430" y="540"/>
                        </Array>
                    </mxGeometry>
                </mxCell>
                <mxCell id="50" value="Immediate[31:0]" style="edgeLabel;html=1;align=center;verticalAlign=middle;resizable=0;points=[];" vertex="1" connectable="0" parent="49">
                    <mxGeometry x="0.1694" y="-3" relative="1" as="geometry">
                        <mxPoint as="offset"/>
                    </mxGeometry>
                </mxCell>
                <mxCell id="143" style="edgeStyle=orthogonalEdgeStyle;html=1;exitX=1;exitY=0.5;exitDx=0;exitDy=0;entryX=0.75;entryY=1;entryDx=0;entryDy=0;elbow=vertical;" edge="1" parent="1" source="10" target="140">
                    <mxGeometry relative="1" as="geometry">
                        <Array as="points">
                            <mxPoint x="440" y="535"/>
                            <mxPoint x="440" y="-750"/>
                        </Array>
                    </mxGeometry>
                </mxCell>
                <mxCell id="146" value="Immediate" style="edgeLabel;html=1;align=center;verticalAlign=middle;resizable=0;points=[];" vertex="1" connectable="0" parent="143">
                    <mxGeometry x="0.9123" y="4" relative="1" as="geometry">
                        <mxPoint as="offset"/>
                    </mxGeometry>
                </mxCell>
                <mxCell id="144" style="edgeStyle=orthogonalEdgeStyle;html=1;exitX=1;exitY=0.5;exitDx=0;exitDy=0;entryX=0.75;entryY=1;entryDx=0;entryDy=0;elbow=vertical;" edge="1" parent="1" source="10" target="141">
                    <mxGeometry relative="1" as="geometry">
                        <Array as="points">
                            <mxPoint x="440" y="535"/>
                            <mxPoint x="440" y="-650"/>
                        </Array>
                    </mxGeometry>
                </mxCell>
                <mxCell id="149" value="immediate" style="edgeLabel;html=1;align=center;verticalAlign=middle;resizable=0;points=[];" vertex="1" connectable="0" parent="144">
                    <mxGeometry x="0.9148" y="2" relative="1" as="geometry">
                        <mxPoint as="offset"/>
                    </mxGeometry>
                </mxCell>
                <mxCell id="10" value="Immediate&lt;br&gt;generator" style="ellipse;whiteSpace=wrap;html=1;aspect=fixed;" vertex="1" parent="1">
                    <mxGeometry x="255" y="490" width="90" height="90" as="geometry"/>
                </mxCell>
                <mxCell id="15" style="edgeStyle=none;html=1;exitX=1;exitY=0.5;exitDx=0;exitDy=0;entryX=-0.001;entryY=0.431;entryDx=0;entryDy=0;entryPerimeter=0;" edge="1" parent="1" source="11" target="12">
                    <mxGeometry relative="1" as="geometry">
                        <Array as="points">
                            <mxPoint x="-110" y="290"/>
                        </Array>
                    </mxGeometry>
                </mxCell>
                <mxCell id="16" value="Read_address" style="edgeLabel;html=1;align=center;verticalAlign=middle;resizable=0;points=[];" vertex="1" connectable="0" parent="15">
                    <mxGeometry x="0.4053" y="-1" relative="1" as="geometry">
                        <mxPoint x="-20" y="-2" as="offset"/>
                    </mxGeometry>
                </mxCell>
                <mxCell id="73" style="edgeStyle=orthogonalEdgeStyle;html=1;exitX=0.75;exitY=0;exitDx=0;exitDy=0;elbow=vertical;entryX=0.25;entryY=0;entryDx=0;entryDy=0;" edge="1" parent="1" source="11" target="8">
                    <mxGeometry relative="1" as="geometry">
                        <mxPoint x="790" y="20" as="targetPoint"/>
                        <Array as="points">
                            <mxPoint x="-185" y="120"/>
                            <mxPoint x="700" y="120"/>
                            <mxPoint x="700" y="20"/>
                            <mxPoint x="889" y="20"/>
                        </Array>
                    </mxGeometry>
                </mxCell>
                <mxCell id="74" value="pc" style="edgeLabel;html=1;align=center;verticalAlign=middle;resizable=0;points=[];" vertex="1" connectable="0" parent="73">
                    <mxGeometry x="-0.7794" y="1" relative="1" as="geometry">
                        <mxPoint as="offset"/>
                    </mxGeometry>
                </mxCell>
                <mxCell id="142" style="edgeStyle=orthogonalEdgeStyle;html=1;exitX=0.75;exitY=0;exitDx=0;exitDy=0;entryX=0.25;entryY=1;entryDx=0;entryDy=0;elbow=vertical;" edge="1" parent="1" source="11" target="140">
                    <mxGeometry relative="1" as="geometry"/>
                </mxCell>
                <mxCell id="145" value="PC" style="edgeLabel;html=1;align=center;verticalAlign=middle;resizable=0;points=[];" vertex="1" connectable="0" parent="142">
                    <mxGeometry x="0.9164" y="-1" relative="1" as="geometry">
                        <mxPoint as="offset"/>
                    </mxGeometry>
                </mxCell>
                <mxCell id="161" style="edgeStyle=orthogonalEdgeStyle;html=1;exitX=0.75;exitY=0;exitDx=0;exitDy=0;entryX=0.25;entryY=1;entryDx=0;entryDy=0;elbow=vertical;" edge="1" parent="1" source="11" target="160">
                    <mxGeometry relative="1" as="geometry"/>
                </mxCell>
                <mxCell id="162" value="PC" style="edgeLabel;html=1;align=center;verticalAlign=middle;resizable=0;points=[];" vertex="1" connectable="0" parent="161">
                    <mxGeometry x="0.9304" y="-1" relative="1" as="geometry">
                        <mxPoint as="offset"/>
                    </mxGeometry>
                </mxCell>
                <mxCell id="168" style="edgeStyle=orthogonalEdgeStyle;html=1;exitX=0.75;exitY=0;exitDx=0;exitDy=0;entryX=0.25;entryY=1;entryDx=0;entryDy=0;elbow=vertical;" edge="1" parent="1" source="11" target="157">
                    <mxGeometry relative="1" as="geometry"/>
                </mxCell>
                <mxCell id="169" value="PC" style="edgeLabel;html=1;align=center;verticalAlign=middle;resizable=0;points=[];" vertex="1" connectable="0" parent="168">
                    <mxGeometry x="0.9074" y="-1" relative="1" as="geometry">
                        <mxPoint as="offset"/>
                    </mxGeometry>
                </mxCell>
                <mxCell id="11" value="PC = o_IMEM_addr" style="rounded=0;whiteSpace=wrap;html=1;" vertex="1" parent="1">
                    <mxGeometry x="-260" y="220" width="100" height="140" as="geometry"/>
                </mxCell>
                <mxCell id="18" style="edgeStyle=none;html=1;exitX=1.049;exitY=0.303;exitDx=0;exitDy=0;entryX=0;entryY=0.25;entryDx=0;entryDy=0;exitPerimeter=0;" edge="1" parent="1" source="12" target="2">
                    <mxGeometry relative="1" as="geometry"/>
                </mxCell>
                <mxCell id="19" value="" style="edgeStyle=none;html=1;exitX=1.024;exitY=0.424;exitDx=0;exitDy=0;exitPerimeter=0;" edge="1" parent="1" source="12" target="2">
                    <mxGeometry relative="1" as="geometry"/>
                </mxCell>
                <mxCell id="20" style="edgeStyle=none;html=1;entryX=0;entryY=0.75;entryDx=0;entryDy=0;" edge="1" parent="1" source="12" target="2">
                    <mxGeometry relative="1" as="geometry"/>
                </mxCell>
                <mxCell id="30" style="edgeStyle=none;html=1;exitX=0.75;exitY=0;exitDx=0;exitDy=0;entryX=0;entryY=0.5;entryDx=0;entryDy=0;" edge="1" parent="1" source="12" target="3">
                    <mxGeometry relative="1" as="geometry">
                        <mxPoint x="30.047619047619037" y="-40" as="targetPoint"/>
                        <Array as="points">
                            <mxPoint x="40" y="-70"/>
                            <mxPoint x="40" y="-85"/>
                        </Array>
                    </mxGeometry>
                </mxCell>
                <mxCell id="33" value="Instruction[6:0]]" style="edgeLabel;html=1;align=center;verticalAlign=middle;resizable=0;points=[];" vertex="1" connectable="0" parent="30">
                    <mxGeometry x="0.5385" y="3" relative="1" as="geometry">
                        <mxPoint x="-25" y="3" as="offset"/>
                    </mxGeometry>
                </mxCell>
                <mxCell id="37" style="edgeStyle=none;html=1;entryX=0.041;entryY=0.67;entryDx=0;entryDy=0;entryPerimeter=0;" edge="1" parent="1" source="12" target="3">
                    <mxGeometry relative="1" as="geometry"/>
                </mxCell>
                <mxCell id="39" value="Instruction[31:25]" style="edgeLabel;html=1;align=center;verticalAlign=middle;resizable=0;points=[];rotation=-60;" vertex="1" connectable="0" parent="37">
                    <mxGeometry x="0.5712" y="-2" relative="1" as="geometry">
                        <mxPoint x="-40" y="60" as="offset"/>
                    </mxGeometry>
                </mxCell>
                <mxCell id="38" style="edgeStyle=none;html=1;" edge="1" parent="1" source="12" target="3">
                    <mxGeometry relative="1" as="geometry"/>
                </mxCell>
                <mxCell id="40" value="Instruction[14:12]" style="edgeLabel;html=1;align=center;verticalAlign=middle;resizable=0;points=[];rotation=-60;" vertex="1" connectable="0" parent="38">
                    <mxGeometry x="0.6164" y="1" relative="1" as="geometry">
                        <mxPoint x="-25" y="47" as="offset"/>
                    </mxGeometry>
                </mxCell>
                <mxCell id="41" style="edgeStyle=none;html=1;exitX=1;exitY=1;exitDx=0;exitDy=0;entryX=0;entryY=0.5;entryDx=0;entryDy=0;" edge="1" parent="1" source="12" target="10">
                    <mxGeometry relative="1" as="geometry"/>
                </mxCell>
                <mxCell id="48" value="Immediate[31:0]" style="edgeLabel;html=1;align=center;verticalAlign=middle;resizable=0;points=[];" vertex="1" connectable="0" parent="41">
                    <mxGeometry x="0.0512" y="-4" relative="1" as="geometry">
                        <mxPoint as="offset"/>
                    </mxGeometry>
                </mxCell>
                <mxCell id="12" value="Instruction_memory" style="rounded=0;whiteSpace=wrap;html=1;" vertex="1" parent="1">
                    <mxGeometry x="-60" y="190" width="120" height="235" as="geometry"/>
                </mxCell>
                <mxCell id="21" value="Read_register1" style="text;html=1;strokeColor=none;fillColor=none;align=center;verticalAlign=middle;whiteSpace=wrap;rounded=0;" vertex="1" parent="1">
                    <mxGeometry x="200" y="220" width="100" height="30" as="geometry"/>
                </mxCell>
                <mxCell id="22" value="Read_register2" style="text;html=1;strokeColor=none;fillColor=none;align=center;verticalAlign=middle;whiteSpace=wrap;rounded=0;" vertex="1" parent="1">
                    <mxGeometry x="190" y="275" width="100" height="30" as="geometry"/>
                </mxCell>
                <mxCell id="24" value="write_back_register" style="text;html=1;strokeColor=none;fillColor=none;align=center;verticalAlign=middle;whiteSpace=wrap;rounded=0;" vertex="1" parent="1">
                    <mxGeometry x="200" y="330" width="100" height="30" as="geometry"/>
                </mxCell>
                <mxCell id="25" value="write_back_data" style="text;html=1;strokeColor=none;fillColor=none;align=center;verticalAlign=middle;whiteSpace=wrap;rounded=0;" vertex="1" parent="1">
                    <mxGeometry x="270" y="370" width="60" height="30" as="geometry"/>
                </mxCell>
                <mxCell id="27" value="Instruction[24:20]" style="edgeLabel;html=1;align=center;verticalAlign=middle;resizable=0;points=[];" vertex="1" connectable="0" parent="1">
                    <mxGeometry x="119.99746398999287" y="290.00384099040866" as="geometry"/>
                </mxCell>
                <mxCell id="29" value="Instruction[11:7]" style="edgeLabel;html=1;align=center;verticalAlign=middle;resizable=0;points=[];" vertex="1" connectable="0" parent="1">
                    <mxGeometry x="119.99746398999287" y="330.00384099040866" as="geometry"/>
                </mxCell>
                <mxCell id="31" value="Instruction[19:15]" style="edgeLabel;html=1;align=center;verticalAlign=middle;resizable=0;points=[];" vertex="1" connectable="0" parent="1">
                    <mxGeometry x="130.2627691651976" y="259.8039368956597" as="geometry"/>
                </mxCell>
                <mxCell id="65" style="edgeStyle=orthogonalEdgeStyle;html=1;exitX=0.25;exitY=0;exitDx=0;exitDy=0;entryX=0;entryY=0.25;entryDx=0;entryDy=0;elbow=vertical;" edge="1" parent="1" source="55" target="8">
                    <mxGeometry relative="1" as="geometry"/>
                </mxCell>
                <mxCell id="66" style="edgeStyle=orthogonalEdgeStyle;html=1;exitX=0.25;exitY=0;exitDx=0;exitDy=0;entryX=0;entryY=0.75;entryDx=0;entryDy=0;elbow=vertical;" edge="1" parent="1" source="55" target="9">
                    <mxGeometry relative="1" as="geometry"/>
                </mxCell>
                <mxCell id="67" value="rs2_select" style="edgeLabel;html=1;align=center;verticalAlign=middle;resizable=0;points=[];" vertex="1" connectable="0" parent="66">
                    <mxGeometry x="-0.8374" y="-2" relative="1" as="geometry">
                        <mxPoint x="25" y="-2" as="offset"/>
                    </mxGeometry>
                </mxCell>
                <mxCell id="55" value="" style="shape=trapezoid;perimeter=trapezoidPerimeter;whiteSpace=wrap;html=1;fixedSize=1;rotation=90;" vertex="1" parent="1">
                    <mxGeometry x="550" y="295" width="120" height="60" as="geometry"/>
                </mxCell>
                <mxCell id="76" value="" style="endArrow=none;html=1;elbow=vertical;entryX=0.5;entryY=1;entryDx=0;entryDy=0;" edge="1" parent="1" target="9">
                    <mxGeometry width="50" height="50" relative="1" as="geometry">
                        <mxPoint x="920" y="480" as="sourcePoint"/>
                        <mxPoint x="910" y="590" as="targetPoint"/>
                    </mxGeometry>
                </mxCell>
                <mxCell id="77" value="Input_clock" style="edgeLabel;html=1;align=center;verticalAlign=middle;resizable=0;points=[];" vertex="1" connectable="0" parent="76">
                    <mxGeometry x="0.4698" relative="1" as="geometry">
                        <mxPoint y="25" as="offset"/>
                    </mxGeometry>
                </mxCell>
                <mxCell id="84" style="edgeStyle=orthogonalEdgeStyle;html=1;exitX=0.25;exitY=0;exitDx=0;exitDy=0;elbow=vertical;" edge="1" parent="1" source="78">
                    <mxGeometry relative="1" as="geometry">
                        <mxPoint x="1250" y="250.15789473684208" as="targetPoint"/>
                    </mxGeometry>
                </mxCell>
                <mxCell id="85" value="ALU_result" style="edgeLabel;html=1;align=center;verticalAlign=middle;resizable=0;points=[];" vertex="1" connectable="0" parent="84">
                    <mxGeometry x="0.1789" y="-1" relative="1" as="geometry">
                        <mxPoint as="offset"/>
                    </mxGeometry>
                </mxCell>
                <mxCell id="100" style="edgeStyle=orthogonalEdgeStyle;html=1;exitX=0.25;exitY=0;exitDx=0;exitDy=0;elbow=vertical;entryX=0.75;entryY=1;entryDx=0;entryDy=0;" edge="1" parent="1" source="78" target="99">
                    <mxGeometry relative="1" as="geometry">
                        <mxPoint x="1220" y="520" as="targetPoint"/>
                        <Array as="points">
                            <mxPoint x="1210" y="250"/>
                            <mxPoint x="1210" y="520"/>
                            <mxPoint x="1460" y="520"/>
                            <mxPoint x="1460" y="330"/>
                        </Array>
                    </mxGeometry>
                </mxCell>
                <mxCell id="78" value="" style="shape=trapezoid;perimeter=trapezoidPerimeter;whiteSpace=wrap;html=1;fixedSize=1;rotation=90;" vertex="1" parent="1">
                    <mxGeometry x="1050" y="250" width="120" height="60" as="geometry"/>
                </mxCell>
                <mxCell id="102" style="edgeStyle=orthogonalEdgeStyle;html=1;exitX=1;exitY=0.25;exitDx=0;exitDy=0;entryX=0.144;entryY=1.012;entryDx=0;entryDy=0;entryPerimeter=0;elbow=vertical;" edge="1" parent="1" source="88" target="99">
                    <mxGeometry relative="1" as="geometry"/>
                </mxCell>
                <mxCell id="88" value="data_memory" style="rounded=0;whiteSpace=wrap;html=1;" vertex="1" parent="1">
                    <mxGeometry x="1250" y="179.8" width="185" height="310.2" as="geometry"/>
                </mxCell>
                <mxCell id="95" value="o_DMEM_addr" style="text;html=1;strokeColor=none;fillColor=none;align=center;verticalAlign=middle;whiteSpace=wrap;rounded=0;" vertex="1" parent="1">
                    <mxGeometry x="1280" y="240" width="60" height="30" as="geometry"/>
                </mxCell>
                <mxCell id="98" value="o_DMEM_wdata" style="text;html=1;strokeColor=none;fillColor=none;align=center;verticalAlign=middle;whiteSpace=wrap;rounded=0;" vertex="1" parent="1">
                    <mxGeometry x="1270" y="400" width="60" height="30" as="geometry"/>
                </mxCell>
                <mxCell id="106" style="edgeStyle=orthogonalEdgeStyle;html=1;exitX=0.5;exitY=0;exitDx=0;exitDy=0;elbow=vertical;" edge="1" parent="1" source="99">
                    <mxGeometry relative="1" as="geometry">
                        <mxPoint x="300" y="400" as="targetPoint"/>
                        <Array as="points">
                            <mxPoint x="1620" y="300"/>
                            <mxPoint x="1620" y="670"/>
                            <mxPoint x="950" y="670"/>
                            <mxPoint x="950" y="700"/>
                            <mxPoint x="240" y="700"/>
                            <mxPoint x="240" y="440"/>
                            <mxPoint x="300" y="440"/>
                        </Array>
                    </mxGeometry>
                </mxCell>
                <mxCell id="107" value="write_data_back_reg" style="edgeLabel;html=1;align=center;verticalAlign=middle;resizable=0;points=[];" vertex="1" connectable="0" parent="106">
                    <mxGeometry x="-0.2666" y="1" relative="1" as="geometry">
                        <mxPoint as="offset"/>
                    </mxGeometry>
                </mxCell>
                <mxCell id="99" value="" style="shape=trapezoid;perimeter=trapezoidPerimeter;whiteSpace=wrap;html=1;fixedSize=1;rotation=90;" vertex="1" parent="1">
                    <mxGeometry x="1460" y="270" width="120" height="60" as="geometry"/>
                </mxCell>
                <mxCell id="103" value="i_DMEM_rdata" style="text;html=1;strokeColor=none;fillColor=none;align=center;verticalAlign=middle;whiteSpace=wrap;rounded=0;" vertex="1" parent="1">
                    <mxGeometry x="1375" y="250" width="60" height="30" as="geometry"/>
                </mxCell>
                <mxCell id="178" style="edgeStyle=orthogonalEdgeStyle;html=1;exitX=0.5;exitY=0;exitDx=0;exitDy=0;elbow=vertical;entryX=0.25;entryY=0;entryDx=0;entryDy=0;" edge="1" parent="1" source="112" target="11">
                    <mxGeometry relative="1" as="geometry">
                        <mxPoint x="1040" y="-829.7142857142858" as="targetPoint"/>
                        <Array as="points">
                            <mxPoint x="950" y="-830"/>
                            <mxPoint x="950" y="-275"/>
                            <mxPoint x="-235" y="-275"/>
                        </Array>
                    </mxGeometry>
                </mxCell>
                <mxCell id="179" value="PC_next" style="edgeLabel;html=1;align=center;verticalAlign=middle;resizable=0;points=[];" vertex="1" connectable="0" parent="178">
                    <mxGeometry x="0.9315" y="-1" relative="1" as="geometry">
                        <mxPoint as="offset"/>
                    </mxGeometry>
                </mxCell>
                <mxCell id="112" value="" style="shape=trapezoid;perimeter=trapezoidPerimeter;whiteSpace=wrap;html=1;fixedSize=1;rotation=90;" vertex="1" parent="1">
                    <mxGeometry x="850" y="-860" width="120" height="60" as="geometry"/>
                </mxCell>
                <mxCell id="114" value="0" style="text;html=1;strokeColor=none;fillColor=none;align=center;verticalAlign=middle;whiteSpace=wrap;rounded=0;" vertex="1" parent="1">
                    <mxGeometry x="560" y="280" width="60" height="30" as="geometry"/>
                </mxCell>
                <mxCell id="115" value="1" style="text;html=1;strokeColor=none;fillColor=none;align=center;verticalAlign=middle;whiteSpace=wrap;rounded=0;" vertex="1" parent="1">
                    <mxGeometry x="560" y="315" width="60" height="30" as="geometry"/>
                </mxCell>
                <mxCell id="116" value="1" style="text;html=1;strokeColor=none;fillColor=none;align=center;verticalAlign=middle;whiteSpace=wrap;rounded=0;" vertex="1" parent="1">
                    <mxGeometry x="1060" y="295" width="60" height="30" as="geometry"/>
                </mxCell>
                <mxCell id="117" value="0" style="text;html=1;strokeColor=none;fillColor=none;align=center;verticalAlign=middle;whiteSpace=wrap;rounded=0;" vertex="1" parent="1">
                    <mxGeometry x="1060" y="265" width="60" height="30" as="geometry"/>
                </mxCell>
                <mxCell id="118" value="0" style="text;html=1;strokeColor=none;fillColor=none;align=center;verticalAlign=middle;whiteSpace=wrap;rounded=0;" vertex="1" parent="1">
                    <mxGeometry x="1470" y="315" width="60" height="30" as="geometry"/>
                </mxCell>
                <mxCell id="119" value="1" style="text;html=1;strokeColor=none;fillColor=none;align=center;verticalAlign=middle;whiteSpace=wrap;rounded=0;" vertex="1" parent="1">
                    <mxGeometry x="1470" y="244.89999999999998" width="60" height="29.8" as="geometry"/>
                </mxCell>
                <mxCell id="183" style="edgeStyle=orthogonalEdgeStyle;html=1;exitX=1;exitY=0.5;exitDx=0;exitDy=0;exitPerimeter=0;entryX=0;entryY=0.25;entryDx=0;entryDy=0;entryPerimeter=0;elbow=vertical;" edge="1" parent="1" source="121" target="182">
                    <mxGeometry relative="1" as="geometry">
                        <Array as="points">
                            <mxPoint x="590" y="-260"/>
                            <mxPoint x="590" y="20"/>
                            <mxPoint x="285" y="20"/>
                        </Array>
                    </mxGeometry>
                </mxCell>
                <mxCell id="184" value="PC_contorl" style="edgeLabel;html=1;align=center;verticalAlign=middle;resizable=0;points=[];" vertex="1" connectable="0" parent="183">
                    <mxGeometry x="0.8203" relative="1" as="geometry">
                        <mxPoint x="33" as="offset"/>
                    </mxGeometry>
                </mxCell>
                <mxCell id="121" value="" style="shape=xor;whiteSpace=wrap;html=1;" vertex="1" parent="1">
                    <mxGeometry x="520" y="-300" width="60" height="80" as="geometry"/>
                </mxCell>
                <mxCell id="122" value="" style="endArrow=classic;html=1;elbow=vertical;entryX=0.175;entryY=0.25;entryDx=0;entryDy=0;entryPerimeter=0;" edge="1" parent="1" target="121">
                    <mxGeometry width="50" height="50" relative="1" as="geometry">
                        <mxPoint x="430" y="-280" as="sourcePoint"/>
                        <mxPoint x="570" y="-180" as="targetPoint"/>
                        <Array as="points">
                            <mxPoint x="470" y="-280"/>
                        </Array>
                    </mxGeometry>
                </mxCell>
                <mxCell id="123" value="I_DMEM_stall" style="edgeLabel;html=1;align=center;verticalAlign=middle;resizable=0;points=[];" vertex="1" connectable="0" parent="122">
                    <mxGeometry x="0.1568" y="-2" relative="1" as="geometry">
                        <mxPoint as="offset"/>
                    </mxGeometry>
                </mxCell>
                <mxCell id="125" value="" style="endArrow=classic;html=1;elbow=vertical;exitX=1;exitY=0.5;exitDx=0;exitDy=0;exitPerimeter=0;entryX=1;entryY=0.5;entryDx=0;entryDy=0;" edge="1" parent="1" source="121" target="157">
                    <mxGeometry width="50" height="50" relative="1" as="geometry">
                        <mxPoint x="620" y="-235" as="sourcePoint"/>
                        <mxPoint x="670" y="-260" as="targetPoint"/>
                        <Array as="points">
                            <mxPoint x="630" y="-850"/>
                            <mxPoint x="630" y="-930"/>
                            <mxPoint x="590" y="-930"/>
                        </Array>
                    </mxGeometry>
                </mxCell>
                <mxCell id="126" value="PC_control" style="edgeLabel;html=1;align=center;verticalAlign=middle;resizable=0;points=[];" vertex="1" connectable="0" parent="125">
                    <mxGeometry x="0.2801" y="-2" relative="1" as="geometry">
                        <mxPoint x="-43" y="-199" as="offset"/>
                    </mxGeometry>
                </mxCell>
                <mxCell id="128" value="0&lt;span style=&quot;color: rgba(0, 0, 0, 0); font-family: monospace; font-size: 0px; text-align: start;&quot;&gt;%3CmxGraphModel%3E%3Croot%3E%3CmxCell%20id%3D%220%22%2F%3E%3CmxCell%20id%3D%221%22%20parent%3D%220%22%2F%3E%3CmxCell%20id%3D%222%22%20value%3D%221%22%20style%3D%22text%3Bhtml%3D1%3BstrokeColor%3Dnone%3BfillColor%3Dnone%3Balign%3Dcenter%3BverticalAlign%3Dmiddle%3BwhiteSpace%3Dwrap%3Brounded%3D0%3B%22%20vertex%3D%221%22%20parent%3D%221%22%3E%3CmxGeometry%20x%3D%221060%22%20y%3D%22295%22%20width%3D%2260%22%20height%3D%2230%22%20as%3D%22geometry%22%2F%3E%3C%2FmxCell%3E%3C%2Froot%3E%3C%2FmxGraphModel%3E&lt;/span&gt;" style="text;html=1;strokeColor=none;fillColor=none;align=center;verticalAlign=middle;whiteSpace=wrap;rounded=0;" vertex="1" parent="1">
                    <mxGeometry x="860" y="-870" width="60" height="30" as="geometry"/>
                </mxCell>
                <mxCell id="129" value="1" style="text;html=1;strokeColor=none;fillColor=none;align=center;verticalAlign=middle;whiteSpace=wrap;rounded=0;" vertex="1" parent="1">
                    <mxGeometry x="860" y="-810" width="60" height="30" as="geometry"/>
                </mxCell>
                <mxCell id="137" style="edgeStyle=orthogonalEdgeStyle;html=1;exitX=0.5;exitY=0;exitDx=0;exitDy=0;elbow=vertical;entryX=0.75;entryY=1;entryDx=0;entryDy=0;" edge="1" parent="1" source="131" target="112">
                    <mxGeometry relative="1" as="geometry">
                        <mxPoint x="810" y="-820" as="targetPoint"/>
                    </mxGeometry>
                </mxCell>
                <mxCell id="131" value="" style="shape=trapezoid;perimeter=trapezoidPerimeter;whiteSpace=wrap;html=1;fixedSize=1;rotation=90;" vertex="1" parent="1">
                    <mxGeometry x="680" y="-760" width="120" height="60" as="geometry"/>
                </mxCell>
                <mxCell id="138" style="edgeStyle=orthogonalEdgeStyle;html=1;exitX=0.75;exitY=0;exitDx=0;exitDy=0;entryX=0.25;entryY=1;entryDx=0;entryDy=0;elbow=vertical;" edge="1" parent="1" source="132" target="112">
                    <mxGeometry relative="1" as="geometry"/>
                </mxCell>
                <mxCell id="132" value="" style="shape=trapezoid;perimeter=trapezoidPerimeter;whiteSpace=wrap;html=1;fixedSize=1;rotation=90;" vertex="1" parent="1">
                    <mxGeometry x="670" y="-960" width="120" height="60" as="geometry"/>
                </mxCell>
                <mxCell id="151" style="edgeStyle=orthogonalEdgeStyle;html=1;exitX=0.5;exitY=0;exitDx=0;exitDy=0;entryX=0.25;entryY=1;entryDx=0;entryDy=0;elbow=vertical;" edge="1" parent="1" source="140" target="131">
                    <mxGeometry relative="1" as="geometry"/>
                </mxCell>
                <mxCell id="159" style="edgeStyle=orthogonalEdgeStyle;html=1;exitX=0.5;exitY=0;exitDx=0;exitDy=0;elbow=vertical;entryX=0.75;entryY=1;entryDx=0;entryDy=0;" edge="1" parent="1" source="140" target="156">
                    <mxGeometry relative="1" as="geometry">
                        <mxPoint x="430" y="-810.0000000000001" as="targetPoint"/>
                        <Array as="points">
                            <mxPoint x="660" y="-770"/>
                            <mxPoint x="660" y="-820"/>
                            <mxPoint x="600" y="-820"/>
                            <mxPoint x="600" y="-810"/>
                            <mxPoint x="440" y="-810"/>
                            <mxPoint x="440" y="-850"/>
                        </Array>
                    </mxGeometry>
                </mxCell>
                <mxCell id="140" value="add" style="shape=trapezoid;perimeter=trapezoidPerimeter;whiteSpace=wrap;html=1;fixedSize=1;rotation=90;" vertex="1" parent="1">
                    <mxGeometry x="590" y="-790" width="80" height="40" as="geometry"/>
                </mxCell>
                <mxCell id="152" style="edgeStyle=orthogonalEdgeStyle;html=1;exitX=0.5;exitY=0;exitDx=0;exitDy=0;entryX=0.75;entryY=1;entryDx=0;entryDy=0;elbow=vertical;" edge="1" parent="1" source="141" target="131">
                    <mxGeometry relative="1" as="geometry"/>
                </mxCell>
                <mxCell id="141" value="add" style="shape=trapezoid;perimeter=trapezoidPerimeter;whiteSpace=wrap;html=1;fixedSize=1;rotation=90;" vertex="1" parent="1">
                    <mxGeometry x="590" y="-690" width="80" height="40" as="geometry"/>
                </mxCell>
                <mxCell id="153" value="1" style="text;html=1;strokeColor=none;fillColor=none;align=center;verticalAlign=middle;whiteSpace=wrap;rounded=0;" vertex="1" parent="1">
                    <mxGeometry x="700" y="-710" width="60" height="30" as="geometry"/>
                </mxCell>
                <mxCell id="154" value="0" style="text;html=1;strokeColor=none;fillColor=none;align=center;verticalAlign=middle;whiteSpace=wrap;rounded=0;" vertex="1" parent="1">
                    <mxGeometry x="700" y="-770" width="60" height="30" as="geometry"/>
                </mxCell>
                <mxCell id="175" style="edgeStyle=orthogonalEdgeStyle;html=1;exitX=0.5;exitY=0;exitDx=0;exitDy=0;entryX=0.75;entryY=1;entryDx=0;entryDy=0;elbow=vertical;" edge="1" parent="1" source="156" target="132">
                    <mxGeometry relative="1" as="geometry"/>
                </mxCell>
                <mxCell id="156" value="" style="shape=trapezoid;perimeter=trapezoidPerimeter;whiteSpace=wrap;html=1;fixedSize=1;rotation=90;" vertex="1" parent="1">
                    <mxGeometry x="500" y="-910" width="120" height="60" as="geometry"/>
                </mxCell>
                <mxCell id="174" style="edgeStyle=orthogonalEdgeStyle;html=1;exitX=0.5;exitY=0;exitDx=0;exitDy=0;entryX=0.25;entryY=1;entryDx=0;entryDy=0;elbow=vertical;" edge="1" parent="1" source="157" target="132">
                    <mxGeometry relative="1" as="geometry"/>
                </mxCell>
                <mxCell id="157" value="" style="shape=trapezoid;perimeter=trapezoidPerimeter;whiteSpace=wrap;html=1;fixedSize=1;rotation=90;" vertex="1" parent="1">
                    <mxGeometry x="500" y="-1040" width="120" height="60" as="geometry"/>
                </mxCell>
                <mxCell id="166" style="edgeStyle=orthogonalEdgeStyle;html=1;exitX=0.5;exitY=0;exitDx=0;exitDy=0;entryX=0.308;entryY=0.999;entryDx=0;entryDy=0;entryPerimeter=0;elbow=vertical;" edge="1" parent="1" source="160" target="156">
                    <mxGeometry relative="1" as="geometry"/>
                </mxCell>
                <mxCell id="167" style="edgeStyle=orthogonalEdgeStyle;html=1;exitX=0.5;exitY=0;exitDx=0;exitDy=0;entryX=0.686;entryY=1.02;entryDx=0;entryDy=0;entryPerimeter=0;elbow=vertical;" edge="1" parent="1" source="160" target="157">
                    <mxGeometry relative="1" as="geometry"/>
                </mxCell>
                <mxCell id="160" value="add" style="shape=trapezoid;perimeter=trapezoidPerimeter;whiteSpace=wrap;html=1;fixedSize=1;rotation=90;" vertex="1" parent="1">
                    <mxGeometry x="385" y="-970" width="80" height="40" as="geometry"/>
                </mxCell>
                <mxCell id="163" value="" style="endArrow=classic;html=1;elbow=vertical;entryX=0.75;entryY=1;entryDx=0;entryDy=0;" edge="1" parent="1" target="160">
                    <mxGeometry width="50" height="50" relative="1" as="geometry">
                        <mxPoint x="340" y="-930" as="sourcePoint"/>
                        <mxPoint x="330" y="-980" as="targetPoint"/>
                    </mxGeometry>
                </mxCell>
                <mxCell id="164" value="4" style="edgeLabel;html=1;align=center;verticalAlign=middle;resizable=0;points=[];" vertex="1" connectable="0" parent="163">
                    <mxGeometry x="-0.205" y="-2" relative="1" as="geometry">
                        <mxPoint as="offset"/>
                    </mxGeometry>
                </mxCell>
                <mxCell id="170" value="1" style="text;html=1;strokeColor=none;fillColor=none;align=center;verticalAlign=middle;whiteSpace=wrap;rounded=0;" vertex="1" parent="1">
                    <mxGeometry x="510" y="-860" width="60" height="30" as="geometry"/>
                </mxCell>
                <mxCell id="171" value="1" style="text;html=1;strokeColor=none;fillColor=none;align=center;verticalAlign=middle;whiteSpace=wrap;rounded=0;" vertex="1" parent="1">
                    <mxGeometry x="510" y="-1050" width="60" height="30" as="geometry"/>
                </mxCell>
                <mxCell id="172" value="0" style="text;html=1;strokeColor=none;fillColor=none;align=center;verticalAlign=middle;whiteSpace=wrap;rounded=0;" vertex="1" parent="1">
                    <mxGeometry x="510" y="-1000" width="60" height="30" as="geometry"/>
                </mxCell>
                <mxCell id="173" value="0" style="text;html=1;strokeColor=none;fillColor=none;align=center;verticalAlign=middle;whiteSpace=wrap;rounded=0;" vertex="1" parent="1">
                    <mxGeometry x="510" y="-920" width="60" height="30" as="geometry"/>
                </mxCell>
                <mxCell id="176" value="0" style="text;html=1;strokeColor=none;fillColor=none;align=center;verticalAlign=middle;whiteSpace=wrap;rounded=0;" vertex="1" parent="1">
                    <mxGeometry x="680" y="-970" width="60" height="30" as="geometry"/>
                </mxCell>
                <mxCell id="177" value="1" style="text;html=1;strokeColor=none;fillColor=none;align=center;verticalAlign=middle;whiteSpace=wrap;rounded=0;" vertex="1" parent="1">
                    <mxGeometry x="680" y="-910" width="60" height="30" as="geometry"/>
                </mxCell>
                <mxCell id="185" style="edgeStyle=orthogonalEdgeStyle;html=1;exitX=1;exitY=0.5;exitDx=0;exitDy=0;exitPerimeter=0;entryX=0.25;entryY=0;entryDx=0;entryDy=0;elbow=vertical;" edge="1" parent="1" source="182" target="2">
                    <mxGeometry relative="1" as="geometry"/>
                </mxCell>
                <mxCell id="182" value="" style="shape=or;whiteSpace=wrap;html=1;rotation=90;" vertex="1" parent="1">
                    <mxGeometry x="235" y="40" width="60" height="80" as="geometry"/>
                </mxCell>
                <mxCell id="186" value="wen" style="text;html=1;strokeColor=none;fillColor=none;align=center;verticalAlign=middle;whiteSpace=wrap;rounded=0;" vertex="1" parent="1">
                    <mxGeometry x="220" y="179.8" width="60" height="30" as="geometry"/>
                </mxCell>
            </root>
        </mxGraphModel>
    </diagram>
</mxfile>